<?xml version="1.0" encoding="UTF-8"?>
<!DOCTYPE svg PUBLIC "-//W3C//DTD SVG 1.1//EN" "http://www.w3.org/Graphics/SVG/1.1/DTD/svg11.dtd">
<svg xmlns="http://www.w3.org/2000/svg" version="1.1" width="369px" height="436px" style="shape-rendering:geometricPrecision; text-rendering:geometricPrecision; image-rendering:optimizeQuality; fill-rule:evenodd; clip-rule:evenodd" xmlns:xlink="http://www.w3.org/1999/xlink">
<g><path style="opacity:1" fill="#fefefe" d="M -0.5,-0.5 C 122.5,-0.5 245.5,-0.5 368.5,-0.5C 368.5,144.833 368.5,290.167 368.5,435.5C 245.5,435.5 122.5,435.5 -0.5,435.5C -0.5,290.167 -0.5,144.833 -0.5,-0.5 Z"/></g>
<g><path style="opacity:1" fill="#6482f8" d="M 166.5,43.5 C 183.394,42.6896 200.061,44.1896 216.5,48C 231.26,53.3429 237.427,63.8429 235,79.5C 231.082,92.0389 222.582,98.7056 209.5,99.5C 162.922,89.0429 129.088,105.043 108,147.5C 97.403,180.864 104.236,210.031 128.5,235C 149.233,253.185 173.233,259.518 200.5,254C 233.844,244.826 253.844,223.326 260.5,189.5C 250.161,189.666 239.828,189.5 229.5,189C 212.58,182.326 206.413,170.16 211,152.5C 214.972,145.192 220.806,140.026 228.5,137C 250.167,136.333 271.833,136.333 293.5,137C 306.44,140.609 313.607,149.109 315,162.5C 317.653,225.058 291.153,270.225 235.5,298C 178.559,319.346 128.392,308.846 85,266.5C 52.2195,228.113 42.5528,184.446 56,135.5C 69.715,97.1168 95.215,69.6168 132.5,53C 143.769,49.1858 155.103,46.0192 166.5,43.5 Z"/></g>
<g><path style="opacity:1" fill="#6482f8" d="M 108.5,323.5 C 113.511,323.334 118.511,323.501 123.5,324C 162.807,339.28 202.14,339.28 241.5,324C 258.079,321.368 269.246,327.868 275,343.5C 277.352,358.635 271.519,369.135 257.5,375C 208.248,392.595 158.915,392.928 109.5,376C 92.458,368.749 86.6247,356.249 92,338.5C 95.7983,331.531 101.298,326.531 108.5,323.5 Z"/></g>
</svg>
