<?xml version="1.0" encoding="UTF-8"?>
<!DOCTYPE svg PUBLIC "-//W3C//DTD SVG 1.1//EN" "http://www.w3.org/Graphics/SVG/1.1/DTD/svg11.dtd">
<svg xmlns="http://www.w3.org/2000/svg" version="1.1" width="841px" height="367px" style="shape-rendering:geometricPrecision; text-rendering:geometricPrecision; image-rendering:optimizeQuality; fill-rule:evenodd; clip-rule:evenodd" xmlns:xlink="http://www.w3.org/1999/xlink">
<g><path style="opacity:1" fill="#fefefe" d="M -0.5,-0.5 C 279.833,-0.5 560.167,-0.5 840.5,-0.5C 840.5,121.833 840.5,244.167 840.5,366.5C 560.167,366.5 279.833,366.5 -0.5,366.5C -0.5,244.167 -0.5,121.833 -0.5,-0.5 Z"/></g>
<g><path style="opacity:1" fill="#6683f6" d="M 536.5,35.5 C 550.467,33.4193 560.3,38.7526 566,51.5C 566.667,115.167 566.667,178.833 566,242.5C 561.733,257.393 551.899,263.226 536.5,260C 529.268,257.101 524.435,251.934 522,244.5C 521.333,179.833 521.333,115.167 522,50.5C 525.021,43.6468 529.855,38.6468 536.5,35.5 Z"/></g>
<g><path style="opacity:1" fill="#6582f6" d="M 603.5,35.5 C 616.835,33.0863 626.668,37.7529 633,49.5C 633.667,114.5 633.667,179.5 633,244.5C 626.113,261.048 614.613,265.215 598.5,257C 594.813,253.79 591.979,249.956 590,245.5C 589.333,180.167 589.333,114.833 590,49.5C 593.359,43.6428 597.859,38.9761 603.5,35.5 Z"/></g>
<g><path style="opacity:1" fill="#6582f6" d="M 203.5,54.5 C 203.726,59.5624 203.392,64.5624 202.5,69.5C 200.012,75.4866 195.678,79.6533 189.5,82C 175.83,82.3611 162.163,82.1944 148.5,81.5C 144.294,80.945 140.627,81.945 137.5,84.5C 102.663,99.4995 88.1628,125.833 94,163.5C 106.137,201.16 131.97,218.16 171.5,214.5C 174.91,214.543 178.243,214.043 181.5,213C 182.942,212.623 183.942,211.79 184.5,210.5C 207.442,200.898 221.108,183.898 225.5,159.5C 216.161,159.666 206.827,159.5 197.5,159C 181.599,150.001 178.099,137.501 187,121.5C 189.892,118.943 193.059,116.776 196.5,115C 215.833,114.333 235.167,114.333 254.5,115C 262.575,116.913 267.909,121.746 270.5,129.5C 271.213,139.484 271.547,149.484 271.5,159.5C 261.871,218.963 227.204,252.463 167.5,260C 115.493,261.917 78.3263,239.417 56,192.5C 37.0818,142.68 46.9151,99.5133 85.5,63C 118.627,35.1088 155.627,28.4422 196.5,43C 200.506,45.8515 202.84,49.6848 203.5,54.5 Z"/></g>
<g><path style="opacity:1" fill="#6683f6" d="M 468.5,52.5 C 489.8,50.6336 499.633,60.3003 498,81.5C 490.919,96.0774 479.752,100.244 464.5,94C 454.789,86.1949 451.955,76.3616 456,64.5C 459.403,59.5949 463.57,55.5949 468.5,52.5 Z"/></g>
<g><path style="opacity:1" fill="#b4beeb" d="M 203.5,54.5 C 204.343,57.3257 205.009,60.3257 205.5,63.5C 205.241,65.9872 204.241,67.9872 202.5,69.5C 203.392,64.5624 203.726,59.5624 203.5,54.5 Z"/></g>
<g><path style="opacity:1" fill="#b1bbeb" d="M 148.5,81.5 C 144.989,82.6641 141.323,83.6641 137.5,84.5C 140.627,81.945 144.294,80.945 148.5,81.5 Z"/></g>
<g><path style="opacity:1" fill="#6582f6" d="M 339.5,128.5 C 339.82,152.355 340.82,176.022 342.5,199.5C 348.506,213.835 358.839,218.335 373.5,213C 379.061,210.438 382.894,206.272 385,200.5C 385.136,176.813 385.803,153.146 387,129.5C 389.926,121.737 395.426,117.07 403.5,115.5C 408.23,115.283 412.897,115.617 417.5,116.5C 423.43,119.262 427.93,123.595 431,129.5C 431.667,152.5 431.667,175.5 431,198.5C 426.732,230.77 408.898,251.27 377.5,260C 339.557,264.12 313.39,248.62 299,213.5C 297.939,208.896 297.273,204.229 297,199.5C 296.333,175.833 296.333,152.167 297,128.5C 305.003,113.965 316.503,110.465 331.5,118C 335.175,120.828 337.842,124.328 339.5,128.5 Z"/></g>
<g><path style="opacity:1" fill="#a2b0ed" d="M 403.5,115.5 C 407.646,114.353 411.98,114.186 416.5,115C 417.056,115.383 417.389,115.883 417.5,116.5C 412.897,115.617 408.23,115.283 403.5,115.5 Z"/></g>
<g><path style="opacity:1" fill="#6482f6" d="M 471.5,113.5 C 484.007,112.855 492.84,118.189 498,129.5C 498.667,168.167 498.667,206.833 498,245.5C 492.155,258.172 482.322,263.005 468.5,260C 461.851,256.686 457.351,251.519 455,244.5C 454.333,205.833 454.333,167.167 455,128.5C 458.822,121.504 464.322,116.504 471.5,113.5 Z"/></g>
<g><path style="opacity:1" fill="#6582f6" d="M 785.5,203.5 C 765.164,203.333 744.831,203.5 724.5,204C 719.136,204.171 713.802,204.671 708.5,205.5C 708.855,206.522 709.522,207.189 710.5,207.5C 717.122,214.307 725.122,216.807 734.5,215C 745.179,209.002 755.846,209.002 766.5,215C 774.364,222.771 776.53,231.937 773,242.5C 771.439,245.783 769.273,248.617 766.5,251C 721.732,271.186 687.232,260.019 663,217.5C 657.285,203.986 655.452,189.986 657.5,175.5C 659.025,172.417 660.025,169.084 660.5,165.5C 675.695,126.058 704.361,109.558 746.5,116C 783.31,126.795 801.81,151.295 802,189.5C 799.083,197.253 793.583,201.92 785.5,203.5 Z"/></g>
<g><path style="opacity:1" fill="#b1bcea" d="M 339.5,128.5 C 340.222,128.918 340.722,129.584 341,130.5C 341.778,153.495 342.278,176.495 342.5,199.5C 340.82,176.022 339.82,152.355 339.5,128.5 Z"/></g>
<g><path style="opacity:1" fill="#b1bbeb" d="M 270.5,129.5 C 271.268,130.263 271.768,131.263 272,132.5C 272.824,141.676 272.657,150.676 271.5,159.5C 271.547,149.484 271.213,139.484 270.5,129.5 Z"/></g>
<g><path style="opacity:1" fill="#fdfdfe" d="M 756.5,179.5 C 748.026,180.832 739.193,181.498 730,181.5C 720.994,181.5 712.16,181.166 703.5,180.5C 706.977,167.609 715.311,160.609 728.5,159.5C 742.592,159.603 751.925,166.269 756.5,179.5 Z"/></g>
<g><path style="opacity:1" fill="#9eacee" d="M 660.5,165.5 C 660.025,169.084 659.025,172.417 657.5,175.5C 657.32,171.714 658.32,168.381 660.5,165.5 Z"/></g>
<g><path style="opacity:1" fill="#a4b2ec" d="M 756.5,179.5 C 757.404,180.209 757.737,181.209 757.5,182.5C 739.155,182.833 720.821,182.5 702.5,181.5C 702.624,180.893 702.957,180.56 703.5,180.5C 712.16,181.166 720.994,181.5 730,181.5C 739.193,181.498 748.026,180.832 756.5,179.5 Z"/></g>
<g><path style="opacity:1" fill="#abb8ec" d="M 785.5,203.5 C 762.008,204.717 738.341,205.551 714.5,206C 712.942,206.21 711.609,206.71 710.5,207.5C 709.522,207.189 708.855,206.522 708.5,205.5C 713.802,204.671 719.136,204.171 724.5,204C 744.831,203.5 765.164,203.333 785.5,203.5 Z"/></g>
<g><path style="opacity:1" fill="#a1afed" d="M 184.5,210.5 C 183.942,211.79 182.942,212.623 181.5,213C 178.243,214.043 174.91,214.543 171.5,214.5C 175.745,213.198 180.078,211.865 184.5,210.5 Z"/></g>
<g><path style="opacity:1" fill="#6682f6" d="M 237.5,287.5 C 237.849,293.968 237.183,300.301 235.5,306.5C 232.273,311.965 227.606,315.798 221.5,318C 183.127,329.509 144.46,330.509 105.5,321C 97.9394,318.434 91.1061,314.601 85,309.5C 76.4732,294.065 79.9732,282.231 95.5,274C 100.167,273.333 104.833,273.333 109.5,274C 114.781,275.819 120.114,277.319 125.5,278.5C 128.288,280.976 131.622,281.976 135.5,281.5C 148.788,282.63 162.122,282.797 175.5,282C 189.094,279.689 202.428,276.522 215.5,272.5C 226.095,272.768 233.429,277.768 237.5,287.5 Z"/></g>
<g><path style="opacity:1" fill="#a6b3ec" d="M 125.5,278.5 C 129.048,279.13 132.381,280.13 135.5,281.5C 131.622,281.976 128.288,280.976 125.5,278.5 Z"/></g>
<g><path style="opacity:1" fill="#b5bfea" d="M 237.5,287.5 C 238.652,292.985 238.818,298.651 238,304.5C 237.292,305.381 236.458,306.047 235.5,306.5C 237.183,300.301 237.849,293.968 237.5,287.5 Z"/></g>
</svg>
