<?xml version="1.0" encoding="UTF-8"?>
<!DOCTYPE svg PUBLIC "-//W3C//DTD SVG 1.1//EN" "http://www.w3.org/Graphics/SVG/1.1/DTD/svg11.dtd">
<svg xmlns="http://www.w3.org/2000/svg" version="1.1" width="302px" height="369px" style="shape-rendering:geometricPrecision; text-rendering:geometricPrecision; image-rendering:optimizeQuality; fill-rule:evenodd; clip-rule:evenodd" xmlns:xlink="http://www.w3.org/1999/xlink">
<g><path style="opacity:1" fill="#6482f8" d="M -0.5,-0.5 C 100.167,-0.5 200.833,-0.5 301.5,-0.5C 301.5,122.5 301.5,245.5 301.5,368.5C 200.833,368.5 100.167,368.5 -0.5,368.5C -0.5,245.5 -0.5,122.5 -0.5,-0.5 Z"/></g>
<g><path style="opacity:1" fill="#fefefe" d="M 134.5,20.5 C 146.171,20.3335 157.838,20.5001 169.5,21C 180.793,21.233 190.293,25.3997 198,33.5C 202.757,41.2999 203.757,49.6332 201,58.5C 197.571,66.929 191.404,72.0957 182.5,74C 172.023,73.3088 161.523,72.4755 151,71.5C 115.844,73.3149 91.8439,90.6483 79,123.5C 69.0564,166.437 83.5564,197.937 122.5,218C 157.441,229.64 187.274,221.806 212,194.5C 219.654,184.371 224.488,173.038 226.5,160.5C 216.828,160.666 207.161,160.5 197.5,160C 178.435,152.687 172.935,139.52 181,120.5C 184.642,115.854 189.142,112.354 194.5,110C 216.5,108 238.5,108 260.5,110C 272.614,115.122 278.781,124.289 279,137.5C 280.575,195.881 255.408,238.048 203.5,264C 145.804,285.949 95.9711,274.449 54,229.5C 22.0848,187.713 16.0848,142.38 36,93.5C 56.6675,52.7497 89.5009,28.4164 134.5,20.5 Z"/></g>
<g><path style="opacity:1" fill="#fdfdfe" d="M 81.5,288.5 C 86.1785,288.334 90.8452,288.501 95.5,289C 121.958,299.352 149.291,302.352 177.5,298C 188.066,295.776 198.399,292.776 208.5,289C 223.135,286.733 233.635,292.233 240,305.5C 242.771,317.251 239.604,327.084 230.5,335C 180.248,355.762 129.581,356.762 78.5,338C 65.1391,330.599 60.3058,319.432 64,304.5C 67.5029,296.492 73.3362,291.159 81.5,288.5 Z"/></g>
</svg>
